<?xml version="1.0" encoding="utf-8"?>
<!-- Generator: Adobe Illustrator 16.0.3, SVG Export Plug-In . SVG Version: 6.00 Build 0)  -->
<!DOCTYPE svg PUBLIC "-//W3C//DTD SVG 1.1//EN" "http://www.w3.org/Graphics/SVG/1.1/DTD/svg11.dtd">
<svg version="1.1" id="Capa_1" xmlns="http://www.w3.org/2000/svg" xmlns:xlink="http://www.w3.org/1999/xlink" x="0px" y="0px"
	 width="426.667px" height="426.667px" viewBox="0 0 426.667 426.667" enable-background="new 0 0 426.667 426.667"
	 xml:space="preserve">
<path fill="#FFFFFF" d="M405.332,192H234.667V21.332C234.667,9.559,225.109,0,213.332,0C201.559,0,192,9.559,192,21.332V192H21.332
	C9.559,192,0,201.559,0,213.332c0,11.777,9.559,21.335,21.332,21.335H192v170.664c0,11.777,9.559,21.336,21.332,21.336
	c11.777,0,21.335-9.559,21.335-21.336V234.667h170.664c11.777,0,21.336-9.559,21.336-21.335
	C426.667,201.559,417.109,192,405.332,192z"/>
</svg>
